<svg width="21" height="15" viewBox="0 0 21 15" fill="none" xmlns="http://www.w3.org/2000/svg">
<path d="M13.8498 0.930389C13.7338 0.927855 13.6184 0.93587 13.5055 0.953989C12.8284 1.0627 12.2332 1.52888 12.0034 2.2048C11.9535 2.35169 11.9084 2.49862 11.871 2.64751C11.2994 2.59602 10.8215 2.58648 10.5253 2.58648C10.2292 2.58648 9.75129 2.59602 9.17968 2.64751C9.14233 2.49889 9.09713 2.35225 9.04726 2.20562C8.81751 1.5297 8.22235 1.06352 7.54518 0.954803C7.31946 0.918566 7.08426 0.922557 6.85083 0.971079C5.91437 1.16582 4.57693 1.54368 3.52224 2.38547C3.51087 2.39458 3.49983 2.40408 3.48913 2.41395C3.15626 2.71927 2.92668 3.13154 2.64333 3.71278C2.35998 4.29401 2.0661 5.0252 1.79587 5.85877C1.25543 7.52592 0.811035 9.59903 0.811035 11.6539C0.811063 11.7614 0.839283 11.867 0.892967 11.9607C1.88684 13.6948 4.04456 14.3524 5.36612 14.6145C6.09512 14.759 6.84609 14.4646 7.28118 13.8715L7.80504 13.1569C8.58807 13.3182 9.49451 13.4247 10.5253 13.4247C11.5562 13.4247 12.4626 13.3182 13.2457 13.1569L13.7687 13.8707C14.2036 14.4644 14.9555 14.7582 15.6846 14.6137C17.0061 14.3516 19.163 13.694 20.1569 11.9598C20.2106 11.8662 20.2388 11.7605 20.2388 11.653C20.2388 9.59821 19.7953 7.52505 19.2548 5.85796C18.9846 5.02441 18.6899 4.29321 18.4065 3.71196C18.1232 3.13072 17.8934 2.71846 17.5607 2.41314C17.55 2.40327 17.539 2.39377 17.5276 2.38465C16.473 1.54293 15.136 1.16502 14.199 0.970265C14.0823 0.946004 13.9658 0.932922 13.8498 0.930389ZM13.8175 2.17957C13.8564 2.18075 13.8962 2.18517 13.9359 2.19341C14.7639 2.36551 15.9265 2.73206 16.7033 3.3425C16.7555 3.39434 17.0128 3.74457 17.2603 4.25233C17.5121 4.76883 17.789 5.45308 18.0432 6.23719C18.5342 7.7516 18.9214 9.64234 18.9486 11.4594C18.2455 12.5108 16.5276 13.171 15.433 13.3881C15.1909 13.4361 14.9505 13.3444 14.8007 13.1399L14.5549 12.8054C14.8093 12.7205 15.0486 12.6323 15.2617 12.5433C16.327 12.0984 16.916 11.6132 16.916 11.6132C16.9796 11.5599 17.0318 11.4948 17.0698 11.4217C17.1078 11.3486 17.1307 11.2688 17.1373 11.187C17.1439 11.1051 17.1341 11.0228 17.1083 10.9447C17.0826 10.8666 17.0415 10.7942 16.9873 10.7318C16.9331 10.6693 16.8669 10.6179 16.7926 10.5806C16.7182 10.5433 16.6371 10.5207 16.5538 10.5142C16.4706 10.5077 16.3869 10.5174 16.3075 10.5428C16.228 10.5681 16.1545 10.6085 16.0909 10.6618C16.0909 10.6618 15.6894 11.0074 14.7651 11.3934C13.8408 11.7795 12.4345 12.1747 10.5253 12.1747C8.6162 12.1747 7.2099 11.7795 6.28558 11.3934C5.36126 11.0074 4.95977 10.6618 4.95977 10.6618C4.84719 10.5645 4.70327 10.5095 4.55342 10.5064C4.42141 10.5036 4.29177 10.5412 4.18253 10.6142C4.07328 10.6871 3.98983 10.7917 3.94379 10.9133C3.89775 11.035 3.89138 11.1678 3.92559 11.2932C3.95979 11.4186 4.03287 11.5305 4.13466 11.6132C4.13466 11.6132 4.72372 12.0984 5.78902 12.5433C6.00211 12.6323 6.24139 12.7205 6.49579 12.8054L6.24999 13.1407C6.09949 13.3459 5.85907 13.4377 5.61688 13.3897C4.52225 13.1726 2.80434 12.5116 2.10126 11.4602C2.12845 9.64315 2.5157 7.75247 3.00665 6.23801C3.26084 5.45387 3.5386 4.76961 3.79038 4.25314C4.03789 3.74542 4.29459 3.39496 4.34652 3.34331C5.12332 2.73292 6.28636 2.36634 7.114 2.19422C7.43111 2.12831 7.73678 2.294 7.84146 2.60194C7.86867 2.68195 7.88839 2.75601 7.90932 2.83062C6.96211 3.01543 5.9054 3.3364 4.90432 3.92111C4.82956 3.96147 4.76381 4.01621 4.71101 4.08207C4.65821 4.14794 4.61943 4.22358 4.59697 4.30449C4.57452 4.3854 4.56885 4.46992 4.58031 4.55303C4.59177 4.63614 4.62013 4.71613 4.66368 4.78824C4.70723 4.86035 4.7651 4.9231 4.83383 4.97276C4.90256 5.02242 4.98076 5.05797 5.06375 5.07729C5.14675 5.09661 5.23285 5.09931 5.31693 5.08523C5.40101 5.07115 5.48134 5.04058 5.55316 4.99533C7.39942 3.91696 9.6811 3.83648 10.5253 3.83648C11.3696 3.83648 13.6513 3.91696 15.4975 4.99533C15.5694 5.04058 15.6497 5.07115 15.7338 5.08523C15.8179 5.09931 15.904 5.09661 15.9869 5.07729C16.0699 5.05797 16.1481 5.02242 16.2169 4.97276C16.2856 4.9231 16.3435 4.86035 16.387 4.78824C16.4306 4.71613 16.4589 4.63614 16.4704 4.55303C16.4818 4.46992 16.4762 4.3854 16.4537 4.30449C16.4313 4.22358 16.3925 4.14794 16.3397 4.08207C16.2869 4.01621 16.2211 3.96147 16.1464 3.92111C15.145 3.33624 14.088 3.01541 13.1406 2.83062C13.1615 2.75581 13.1811 2.6814 13.2084 2.60112C13.3 2.33168 13.5451 2.17134 13.8175 2.17957ZM7.78601 7.16655C7.39775 7.16849 7.02597 7.34318 6.75204 7.6524C6.4781 7.96162 6.3243 8.3802 6.3243 8.81654C6.3243 9.25287 6.4781 9.67145 6.75204 9.98067C7.02597 10.2899 7.39775 10.4646 7.78601 10.4665C8.17427 10.4646 8.54605 10.2899 8.81998 9.98067C9.09392 9.67145 9.24771 9.25287 9.24771 8.81654C9.24771 8.3802 9.09392 7.96162 8.81998 7.6524C8.54605 7.34318 8.17427 7.16849 7.78601 7.16655ZM13.2564 7.16655C12.8631 7.16655 12.4859 7.34215 12.2077 7.65471C11.9296 7.96727 11.7734 8.39119 11.7734 8.83322C11.7734 9.27525 11.9296 9.69917 12.2077 10.0117C12.4859 10.3243 12.8631 10.4999 13.2564 10.4999C13.6497 10.4999 14.027 10.3243 14.3051 10.0117C14.5832 9.69917 14.7395 9.27525 14.7395 8.83322C14.7395 8.39119 14.5832 7.96727 14.3051 7.65471C14.027 7.34215 13.6497 7.16655 13.2564 7.16655V7.16655Z" fill="#3C36E1"/>
</svg>
